<?xml version="1.0" encoding="UTF-8" standalone="no"?>
<svg
   width="278.01001"
   height="322.47217"
   overflow="hidden"
   version="1.1"
   id="svg107"
   sodipodi:docname="hamstr-shiny-logo.svg"
   xmlns:inkscape="http://www.inkscape.org/namespaces/inkscape"
   xmlns:sodipodi="http://sodipodi.sourceforge.net/DTD/sodipodi-0.dtd"
   xmlns="http://www.w3.org/2000/svg"
   xmlns:svg="http://www.w3.org/2000/svg">
  <sodipodi:namedview
     id="namedview109"
     pagecolor="#ffffff"
     bordercolor="#666666"
     borderopacity="1.0"
     inkscape:showpageshadow="2"
     inkscape:pageopacity="0.0"
     inkscape:pagecheckerboard="0"
     inkscape:deskcolor="#d1d1d1"
     showgrid="false" />
  <defs
     id="defs5">
    <clipPath
       clipPathUnits="userSpaceOnUse"
       id="clipPath452">
      <rect
         x="-328.202"
         y="-360"
         width="1280"
         height="720"
         id="rect454"
         transform="scale(-1,1)" />
    </clipPath>
    <clipPath
       clipPathUnits="userSpaceOnUse"
       id="clipPath456">
      <rect
         x="-423.78601"
         y="-403"
         width="1280"
         height="720"
         id="rect458"
         transform="scale(-1,1)" />
    </clipPath>
    <clipPath
       clipPathUnits="userSpaceOnUse"
       id="clipPath460">
      <rect
         x="-423.492"
         y="-359"
         width="1280"
         height="720"
         id="rect462"
         transform="scale(-1,1)" />
    </clipPath>
    <clipPath
       clipPathUnits="userSpaceOnUse"
       id="clipPath464">
      <rect
         x="-421.82001"
         y="-314"
         width="1280"
         height="720"
         id="rect466"
         transform="scale(-1,1)" />
    </clipPath>
    <clipPath
       clipPathUnits="userSpaceOnUse"
       id="clipPath468">
      <rect
         x="-420.202"
         y="-272"
         width="1280"
         height="720"
         id="rect470"
         transform="scale(-1,1)" />
    </clipPath>
    <clipPath
       clipPathUnits="userSpaceOnUse"
       id="clipPath472">
      <rect
         x="-423.78601"
         y="-446"
         width="1280"
         height="720"
         id="rect474"
         transform="scale(-1,1)" />
    </clipPath>
    <clipPath
       clipPathUnits="userSpaceOnUse"
       id="clipPath476">
      <rect
         x="-512.20203"
         y="-425"
         width="1280"
         height="720"
         id="rect478"
         transform="scale(-1,1)" />
    </clipPath>
    <clipPath
       clipPathUnits="userSpaceOnUse"
       id="clipPath480">
      <rect
         x="-512.20203"
         y="-381"
         width="1280"
         height="720"
         id="rect482"
         transform="scale(-1,1)" />
    </clipPath>
    <clipPath
       clipPathUnits="userSpaceOnUse"
       id="clipPath484">
      <rect
         x="-512.20203"
         y="-337"
         width="1280"
         height="720"
         id="rect486"
         transform="scale(-1,1)" />
    </clipPath>
    <clipPath
       clipPathUnits="userSpaceOnUse"
       id="clipPath488">
      <rect
         x="-512.20203"
         y="-293"
         width="1280"
         height="720"
         id="rect490"
         transform="scale(-1,1)" />
    </clipPath>
    <clipPath
       clipPathUnits="userSpaceOnUse"
       id="clipPath492">
      <rect
         x="-511.70401"
         y="-446"
         width="1280"
         height="720"
         id="rect494"
         transform="scale(-1,1)" />
    </clipPath>
    <clipPath
       clipPathUnits="userSpaceOnUse"
       id="clipPath496">
      <rect
         x="-512.20203"
         y="-403"
         width="1280"
         height="720"
         id="rect498"
         transform="scale(-1,1)" />
    </clipPath>
    <clipPath
       clipPathUnits="userSpaceOnUse"
       id="clipPath500">
      <rect
         x="-512.20203"
         y="-359"
         width="1280"
         height="720"
         id="rect502"
         transform="scale(-1,1)" />
    </clipPath>
    <clipPath
       clipPathUnits="userSpaceOnUse"
       id="clipPath504">
      <rect
         x="-512.20203"
         y="-314"
         width="1280"
         height="720"
         id="rect506"
         transform="scale(-1,1)" />
    </clipPath>
    <clipPath
       clipPathUnits="userSpaceOnUse"
       id="clipPath508">
      <rect
         x="-510.202"
         y="-272"
         width="1280"
         height="720"
         id="rect510"
         transform="scale(-1,1)" />
    </clipPath>
  </defs>
  <g
     id="g612"
     inkscape:export-filename="g612.png"
     inkscape:export-xdpi="600"
     inkscape:export-ydpi="600"
     transform="translate(-235.99001,-197.76393)">
    <path
       d="M 374.995,200 512,268.503 V 449.497 L 374.995,518 237.99,449.497 V 268.503 Z"
       stroke="#7f6000"
       stroke-width="4"
       stroke-miterlimit="8"
       fill="#fff2cc"
       fill-rule="evenodd"
       id="path9" />
    <path
       d="M 0,0 90.2017,1.04987e-4"
       stroke="#ffd966"
       stroke-width="4"
       stroke-miterlimit="8"
       fill="none"
       fill-rule="evenodd"
       transform="matrix(-1,0,0,1,510.202,272)"
       id="path11"
       clip-path="url(#clipPath508)" />
    <path
       d="M 0,0 90.2017,1.04987e-4"
       stroke="#ffd966"
       stroke-width="4"
       stroke-miterlimit="8"
       fill="none"
       fill-rule="evenodd"
       transform="matrix(-1,0,0,1,512.202,314)"
       id="path13"
       clip-path="url(#clipPath504)" />
    <path
       d="M 0,0 90.2017,1.04987e-4"
       stroke="#ffd966"
       stroke-width="4"
       stroke-miterlimit="8"
       fill="none"
       fill-rule="evenodd"
       transform="matrix(-1,0,0,1,512.202,359)"
       id="path15"
       clip-path="url(#clipPath500)" />
    <path
       d="M 0,0 90.2017,1.04987e-4"
       stroke="#ffd966"
       stroke-width="4"
       stroke-miterlimit="8"
       fill="none"
       fill-rule="evenodd"
       transform="matrix(-1,0,0,1,512.202,403)"
       id="path17"
       clip-path="url(#clipPath496)" />
    <path
       d="M 0,0 87.7038,1.04987e-4"
       stroke="#ffd966"
       stroke-width="4"
       stroke-miterlimit="8"
       fill="none"
       fill-rule="evenodd"
       transform="matrix(-1,0,0,1,511.704,446)"
       id="path19"
       clip-path="url(#clipPath492)" />
    <path
       d="M 0,0 90.2017,1.04987e-4"
       stroke="#ffd966"
       stroke-width="4"
       stroke-miterlimit="8"
       fill="none"
       fill-rule="evenodd"
       transform="matrix(-1,0,0,1,512.202,293)"
       id="path21"
       clip-path="url(#clipPath488)" />
    <path
       d="M 0,0 90.2017,1.04987e-4"
       stroke="#ffd966"
       stroke-width="4"
       stroke-miterlimit="8"
       fill="none"
       fill-rule="evenodd"
       transform="matrix(-1,0,0,1,512.202,337)"
       id="path23"
       clip-path="url(#clipPath484)" />
    <path
       d="M 0,0 90.2017,1.04987e-4"
       stroke="#ffd966"
       stroke-width="4"
       stroke-miterlimit="8"
       fill="none"
       fill-rule="evenodd"
       transform="matrix(-1,0,0,1,512.202,381)"
       id="path25"
       clip-path="url(#clipPath480)" />
    <path
       d="M 0,0 90.2017,1.04987e-4"
       stroke="#ffd966"
       stroke-width="4"
       stroke-miterlimit="8"
       fill="none"
       fill-rule="evenodd"
       transform="matrix(-1,0,0,1,512.202,425)"
       id="path27"
       clip-path="url(#clipPath476)" />
    <path
       d="M 328,268 V 450.398"
       stroke="#ed7d31"
       stroke-width="4"
       stroke-miterlimit="8"
       fill="none"
       fill-rule="evenodd"
       id="path29" />
    <text
       fill="#7f6000"
       font-family="'Berlin Type', 'Berlin Type_MSFontService', sans-serif"
       font-weight="400"
       font-size="36px"
       id="text33"
       x="331.68399"
       y="355">amstr<tspan
   font-size="125px"
   x="241.3295"
   y="355"
   id="tspan31">H</tspan></text>
    <path
       d="M 0,0 95.786,1.04987e-4"
       stroke="#bf9000"
       stroke-width="4"
       stroke-miterlimit="8"
       fill="none"
       fill-rule="evenodd"
       transform="matrix(-1,0,0,1,423.786,446)"
       id="path35"
       clip-path="url(#clipPath472)" />
    <path
       d="M 0,0 90.2016,1.04987e-4"
       stroke="#bf9000"
       stroke-width="4"
       stroke-miterlimit="8"
       fill="none"
       fill-rule="evenodd"
       transform="matrix(-1,0,0,1,420.202,272)"
       id="path37"
       clip-path="url(#clipPath468)" />
    <path
       d="m 421,222 2.496,271.05"
       stroke="#bf9000"
       stroke-width="4"
       stroke-miterlimit="8"
       fill="none"
       fill-rule="evenodd"
       id="path39" />
    <path
       d="M 0,0 92.8204,1.04987e-4"
       stroke="#bf9000"
       stroke-width="4"
       stroke-miterlimit="8"
       fill="none"
       fill-rule="evenodd"
       transform="matrix(-1,0,0,1,421.82,314)"
       id="path41"
       clip-path="url(#clipPath464)" />
    <path
       d="M 0,0 95.4915,1.04987e-4"
       stroke="#bf9000"
       stroke-width="4"
       stroke-miterlimit="8"
       fill="none"
       fill-rule="evenodd"
       transform="matrix(-1,0,0,1,423.492,359)"
       id="path43"
       clip-path="url(#clipPath460)" />
    <path
       d="M 0,0 95.786,1.04987e-4"
       stroke="#bf9000"
       stroke-width="4"
       stroke-miterlimit="8"
       fill="none"
       fill-rule="evenodd"
       transform="matrix(-1,0,0,1,423.786,403)"
       id="path45"
       clip-path="url(#clipPath456)" />
    <path
       d="M 0,0 90.2016,1.04987e-4"
       stroke="#7f6000"
       stroke-width="4"
       stroke-miterlimit="8"
       fill="none"
       fill-rule="evenodd"
       transform="matrix(-1,0,0,1,328.202,360)"
       id="path47"
       clip-path="url(#clipPath452)" />
    <path
       d="M 328,224 V 495.236"
       stroke="#7f6000"
       stroke-width="4"
       stroke-miterlimit="8"
       fill="none"
       fill-rule="evenodd"
       id="path49" />
    <path
       d="M 374.5,200 511,268.25 v 181.5 L 374.5,518 238,449.75 v -181.5 z"
       stroke="#7f6000"
       stroke-width="4"
       stroke-miterlimit="8"
       fill="none"
       fill-rule="evenodd"
       id="path51" />
  </g>
</svg>
