<?xml version="1.0" encoding="UTF-8" standalone="no"?>
<svg
   width="278.01001"
   height="322.47217"
   overflow="hidden"
   version="1.1"
   id="svg107"
   sodipodi:docname="hex-hamstr-offset.svg"
   inkscape:version="1.3-dev (74adff3496, 2022-05-26)"
   inkscape:export-filename="hex-hamstr-offset.png"
   inkscape:export-xdpi="300"
   inkscape:export-ydpi="300"
   xmlns:inkscape="http://www.inkscape.org/namespaces/inkscape"
   xmlns:sodipodi="http://sodipodi.sourceforge.net/DTD/sodipodi-0.dtd"
   xmlns="http://www.w3.org/2000/svg"
   xmlns:svg="http://www.w3.org/2000/svg">
  <sodipodi:namedview
     id="namedview109"
     pagecolor="#ffffff"
     bordercolor="#666666"
     borderopacity="1.0"
     inkscape:showpageshadow="2"
     inkscape:pageopacity="0.0"
     inkscape:pagecheckerboard="0"
     inkscape:deskcolor="#d1d1d1"
     showgrid="false"
     inkscape:zoom="3.622018"
     inkscape:cx="138.87286"
     inkscape:cy="143.15224"
     inkscape:window-width="2494"
     inkscape:window-height="1371"
     inkscape:window-x="0"
     inkscape:window-y="0"
     inkscape:window-maximized="1"
     inkscape:current-layer="svg107"
     inkscape:export-bgcolor="#ffffffff" />
  <defs
     id="defs5">
    <clipPath
       clipPathUnits="userSpaceOnUse"
       id="clipPath452">
      <rect
         x="-328.202"
         y="-360"
         width="1280"
         height="720"
         id="rect454"
         transform="scale(-1,1)" />
    </clipPath>
    <clipPath
       clipPathUnits="userSpaceOnUse"
       id="clipPath456">
      <rect
         x="-423.78601"
         y="-403"
         width="1280"
         height="720"
         id="rect458"
         transform="scale(-1,1)" />
    </clipPath>
    <clipPath
       clipPathUnits="userSpaceOnUse"
       id="clipPath460">
      <rect
         x="-423.492"
         y="-359"
         width="1280"
         height="720"
         id="rect462"
         transform="scale(-1,1)" />
    </clipPath>
    <clipPath
       clipPathUnits="userSpaceOnUse"
       id="clipPath464">
      <rect
         x="-421.82001"
         y="-314"
         width="1280"
         height="720"
         id="rect466"
         transform="scale(-1,1)" />
    </clipPath>
    <clipPath
       clipPathUnits="userSpaceOnUse"
       id="clipPath468">
      <rect
         x="-420.202"
         y="-272"
         width="1280"
         height="720"
         id="rect470"
         transform="scale(-1,1)" />
    </clipPath>
    <clipPath
       clipPathUnits="userSpaceOnUse"
       id="clipPath472">
      <rect
         x="-423.78601"
         y="-446"
         width="1280"
         height="720"
         id="rect474"
         transform="scale(-1,1)" />
    </clipPath>
    <clipPath
       clipPathUnits="userSpaceOnUse"
       id="clipPath476">
      <rect
         x="-512.20203"
         y="-425"
         width="1280"
         height="720"
         id="rect478"
         transform="scale(-1,1)" />
    </clipPath>
    <clipPath
       clipPathUnits="userSpaceOnUse"
       id="clipPath480">
      <rect
         x="-512.20203"
         y="-381"
         width="1280"
         height="720"
         id="rect482"
         transform="scale(-1,1)" />
    </clipPath>
    <clipPath
       clipPathUnits="userSpaceOnUse"
       id="clipPath484">
      <rect
         x="-512.20203"
         y="-337"
         width="1280"
         height="720"
         id="rect486"
         transform="scale(-1,1)" />
    </clipPath>
    <clipPath
       clipPathUnits="userSpaceOnUse"
       id="clipPath488">
      <rect
         x="-512.20203"
         y="-293"
         width="1280"
         height="720"
         id="rect490"
         transform="scale(-1,1)" />
    </clipPath>
    <clipPath
       clipPathUnits="userSpaceOnUse"
       id="clipPath492">
      <rect
         x="-511.70401"
         y="-446"
         width="1280"
         height="720"
         id="rect494"
         transform="scale(-1,1)" />
    </clipPath>
    <clipPath
       clipPathUnits="userSpaceOnUse"
       id="clipPath496">
      <rect
         x="-512.20203"
         y="-403"
         width="1280"
         height="720"
         id="rect498"
         transform="scale(-1,1)" />
    </clipPath>
    <clipPath
       clipPathUnits="userSpaceOnUse"
       id="clipPath500">
      <rect
         x="-512.20203"
         y="-359"
         width="1280"
         height="720"
         id="rect502"
         transform="scale(-1,1)" />
    </clipPath>
    <clipPath
       clipPathUnits="userSpaceOnUse"
       id="clipPath504">
      <rect
         x="-512.20203"
         y="-314"
         width="1280"
         height="720"
         id="rect506"
         transform="scale(-1,1)" />
    </clipPath>
    <clipPath
       clipPathUnits="userSpaceOnUse"
       id="clipPath508">
      <rect
         x="-510.202"
         y="-272"
         width="1280"
         height="720"
         id="rect510"
         transform="scale(-1,1)" />
    </clipPath>
    <clipPath
       clipPathUnits="userSpaceOnUse"
       id="clipPath472-3">
      <rect
         x="-423.78601"
         y="-446"
         width="1280"
         height="720"
         id="rect474-6"
         transform="scale(-1,1)" />
    </clipPath>
    <clipPath
       clipPathUnits="userSpaceOnUse"
       id="clipPath492-5">
      <rect
         x="-511.70401"
         y="-446"
         width="1280"
         height="720"
         id="rect494-6"
         transform="scale(-1,1)" />
    </clipPath>
    <clipPath
       clipPathUnits="userSpaceOnUse"
       id="clipPath492-9">
      <rect
         x="-511.70401"
         y="-446"
         width="1280"
         height="720"
         id="rect494-1"
         transform="scale(-1,1)" />
    </clipPath>
    <clipPath
       clipPathUnits="userSpaceOnUse"
       id="clipPath508-0">
      <rect
         x="-510.202"
         y="-272"
         width="1280"
         height="720"
         id="rect510-9"
         transform="scale(-1,1)" />
    </clipPath>
  </defs>
  <path
     d="m 139.00499,2.23607 137.005,68.503 v 180.994 l -137.005,68.503 -137.005,-68.503 v -180.994 z"
     stroke="#7f6000"
     stroke-width="4"
     stroke-miterlimit="8"
     fill="#fff2cc"
     fill-rule="evenodd"
     id="path9" />
  <path
     d="M 0,0 90.2017,1.04987e-4"
     stroke="#ffd966"
     stroke-width="4"
     stroke-miterlimit="8"
     fill="none"
     fill-rule="evenodd"
     transform="matrix(-0.89735328,0,0,1.0000569,265.21418,65.708503)"
     id="path11"
     clip-path="url(#clipPath508)" />
  <path
     d="M 0,0 90.2017,1.04987e-4"
     stroke="#ffd966"
     stroke-width="4"
     stroke-miterlimit="8"
     fill="none"
     fill-rule="evenodd"
     transform="matrix(-0.41721843,0,0,1.0003823,222.52198,44.535342)"
     id="path11-3"
     clip-path="url(#clipPath508-0)" />
  <path
     d="M 0,0 90.2017,1.04987e-4"
     stroke="#ffd966"
     stroke-width="4"
     stroke-miterlimit="8"
     fill="none"
     fill-rule="evenodd"
     transform="matrix(-1,0,0,1,276.47298,108.05482)"
     id="path13"
     clip-path="url(#clipPath504)" />
  <path
     d="M 0,0 90.2017,1.04987e-4"
     stroke="#ffd966"
     stroke-width="4"
     stroke-miterlimit="8"
     fill="none"
     fill-rule="evenodd"
     transform="matrix(-1,0,0,1,276.47298,150.40115)"
     id="path15"
     clip-path="url(#clipPath500)" />
  <path
     d="M 0,0 90.2017,1.04987e-4"
     stroke="#ffd966"
     stroke-width="4"
     stroke-miterlimit="8"
     fill="none"
     fill-rule="evenodd"
     transform="matrix(-1,0,0,1,276.9281,192.74747)"
     id="path17"
     clip-path="url(#clipPath496)" />
  <path
     d="M 0,0 87.7038,1.04987e-4"
     stroke="#ffd966"
     stroke-width="4"
     stroke-miterlimit="8"
     fill="none"
     fill-rule="evenodd"
     transform="matrix(-1,0,0,1,275.84017,235.09379)"
     id="path19"
     clip-path="url(#clipPath492)" />
  <path
     d="M 0,0 87.7038,1.04987e-4"
     stroke="#ffd966"
     stroke-width="4"
     stroke-miterlimit="8"
     fill="none"
     fill-rule="evenodd"
     transform="matrix(-0.89881973,0,0,1.0000569,266.54847,256.26695)"
     id="path19-2"
     clip-path="url(#clipPath492-5)" />
  <path
     d="M 0,0 87.7038,1.04987e-4"
     stroke="#ffd966"
     stroke-width="4"
     stroke-miterlimit="8"
     fill="none"
     fill-rule="evenodd"
     transform="matrix(-0.43058687,0,0,1.0003764,224.83901,277.44011)"
     id="path19-27"
     clip-path="url(#clipPath492-9)" />
  <path
     d="M 0,0 90.2017,1.04987e-4"
     stroke="#ffd966"
     stroke-width="4"
     stroke-miterlimit="8"
     fill="none"
     fill-rule="evenodd"
     transform="matrix(-1,0,0,1,276.47298,86.881663)"
     id="path21"
     clip-path="url(#clipPath488)" />
  <path
     d="M 0,0 90.2017,1.04987e-4"
     stroke="#ffd966"
     stroke-width="4"
     stroke-miterlimit="8"
     fill="none"
     fill-rule="evenodd"
     transform="matrix(-1,0,0,1,276.47298,129.22798)"
     id="path23"
     clip-path="url(#clipPath484)" />
  <path
     d="M 0,0 90.2017,1.04987e-4"
     stroke="#ffd966"
     stroke-width="4"
     stroke-miterlimit="8"
     fill="none"
     fill-rule="evenodd"
     transform="matrix(-1,0,0,1,276.92594,171.57431)"
     id="path25"
     clip-path="url(#clipPath480)" />
  <path
     d="M 0,0 90.2017,1.04987e-4"
     stroke="#ffd966"
     stroke-width="4"
     stroke-miterlimit="8"
     fill="none"
     fill-rule="evenodd"
     transform="matrix(-0.98153912,0,0,1.00001,275.3287,213.92063)"
     id="path27"
     clip-path="url(#clipPath476)" />
  <path
     d="m 92.00999,70.23607 v 182.398"
     stroke="#ed7d31"
     stroke-width="4"
     stroke-miterlimit="8"
     fill="none"
     fill-rule="evenodd"
     id="path29" />
  <text
     fill="#7f6000"
     font-family="'Berlin Type', 'Berlin Type_MSFontService', sans-serif"
     font-weight="400"
     font-size="36px"
     id="text33"
     x="95.132103"
     y="135.35707"
     style="font-size:29.3333px">amstr</text>
  <text
     fill="#7f6000"
     font-family="'Berlin Type', 'Berlin Type_MSFontService', sans-serif"
     font-weight="400"
     font-size="36px"
     id="text33-5"
     x="92.574234"
     y="158.29106"
     style="font-size:120px"><tspan
       font-size="125px"
       x="2.2197349"
       y="158.29106"
       id="tspan31-3"
       style="font-size:120px">H</tspan></text>
  <path
     d="M 0,0 95.786,1.04987e-4"
     stroke="#bf9000"
     stroke-width="4"
     stroke-miterlimit="8"
     fill="none"
     fill-rule="evenodd"
     transform="matrix(-0.97732349,0,0,1.0000119,185.71127,224.25521)"
     id="path35"
     clip-path="url(#clipPath472)" />
  <path
     d="M 0,0 95.786,1.04987e-4"
     stroke="#bf9000"
     stroke-width="4"
     stroke-miterlimit="8"
     fill="none"
     fill-rule="evenodd"
     transform="matrix(-0.97786394,0,0,1.0000117,185.51514,266.55624)"
     id="path35-7"
     clip-path="url(#clipPath472-3)" />
  <path
     d="M 0,0 90.2016,1.04987e-4"
     stroke="#bf9000"
     stroke-width="4"
     stroke-miterlimit="8"
     fill="none"
     fill-rule="evenodd"
     transform="matrix(-1.0163207,0,0,0.99999123,184.29936,55.051107)"
     id="path37"
     clip-path="url(#clipPath468)" />
  <path
     d="m 185.60156,24.355781 -0.0956,270.930289"
     stroke="#bf9000"
     stroke-width="4"
     stroke-miterlimit="8"
     fill="none"
     fill-rule="evenodd"
     id="path39"
     sodipodi:nodetypes="cc" />
  <path
     d="M 0,0 92.8204,1.04987e-4"
     stroke="#bf9000"
     stroke-width="4"
     stroke-miterlimit="8"
     fill="none"
     fill-rule="evenodd"
     transform="matrix(-1,0,0,1,185.91734,97.352134)"
     id="path41"
     clip-path="url(#clipPath464)" />
  <path
     d="M 0,0 95.4915,1.04987e-4"
     stroke="#bf9000"
     stroke-width="4"
     stroke-miterlimit="8"
     fill="none"
     fill-rule="evenodd"
     transform="matrix(-0.97750202,0,0,1.0000119,185.441,139.65316)"
     id="path43"
     clip-path="url(#clipPath460)" />
  <path
     d="M 0,0 95.786,1.04987e-4"
     stroke="#bf9000"
     stroke-width="4"
     stroke-miterlimit="8"
     fill="none"
     fill-rule="evenodd"
     transform="matrix(-0.97610747,0,0,1.0000126,185.59479,181.95419)"
     id="path45"
     clip-path="url(#clipPath456)" />
  <path
     d="M 0,0 90.2016,1.04987e-4"
     stroke="#7f6000"
     stroke-width="4"
     stroke-miterlimit="8"
     fill="none"
     fill-rule="evenodd"
     transform="matrix(-1,0,0,1,92.21199,162.23607)"
     id="path47"
     clip-path="url(#clipPath452)" />
  <path
     d="m 92.00999,26.23607 v 271.236"
     stroke="#7f6000"
     stroke-width="4"
     stroke-miterlimit="8"
     fill="none"
     fill-rule="evenodd"
     id="path49" />
  <path
     d="m 138.50999,2.23607 136.5,68.25 v 181.5 l -136.5,68.25 -136.5,-68.25 v -181.5 z"
     stroke="#7f6000"
     stroke-width="4"
     stroke-miterlimit="8"
     fill="none"
     fill-rule="evenodd"
     id="path51" />
</svg>
